<svg xmlns="http://www.w3.org/2000/svg" viewBox="0 0 100 100" width="100%" height="100%">
  <defs>
    <linearGradient id="bgGrad" x1="0%" y1="0%" x2="100%" y2="100%">
      <stop offset="0%" stop-color="#6366f1" />
      <stop offset="100%" stop-color="#4f46e5" />
    </linearGradient>

    <linearGradient id="pinGrad" x1="0%" y1="0%" x2="0%" y2="100%">
      <stop offset="0%" stop-color="#fde047" />
      <stop offset="100%" stop-color="#eab308" />
    </linearGradient>
  </defs>

  <rect x="5" y="5" width="90" height="90" rx="22" fill="url(#bgGrad)" />

  <ellipse cx="45" cy="85" rx="14" ry="4.5" fill="none" stroke="#ffffff" stroke-width="1.5" opacity="0.6"/>
  <ellipse cx="45" cy="85" rx="3" ry="1.5" fill="#ffffff" opacity="0.9"/>

  <ellipse cx="45" cy="85" rx="7" ry="2" fill="#000000" opacity="0.25" />

  <path d="M 45 85 C 45 85 20 55 20 40 A 25 25 0 1 1 70 40 C 70 55 45 85 45 85 Z" fill="url(#pinGrad)" />

  <circle cx="53" cy="34" r="4" fill="#1f2937" />
  <circle cx="54" cy="32.5" r="1.5" fill="#ffffff" />

  <g fill="#ea580c">
    <path d="M 60 37 C 75 34 83 35 83 38 C 83 40 75 41 60 41 Z" />
    <path d="M 63 41 C 75 41 80 43 80 45 C 80 47 70 47 63 46 Z" />
  </g>

  <path d="M 88 35 Q 91 40 88 45" fill="none" stroke="#ffffff" stroke-width="2" stroke-linecap="round" opacity="0.8"/>
  <path d="M 92 33 Q 96 40 92 47" fill="none" stroke="#ffffff" stroke-width="2" stroke-linecap="round" opacity="0.5"/>

</svg>
